<svg xmlns="http://www.w3.org/2000/svg" viewBox="0 0 900 1200">
  <defs>
    <linearGradient id="bg" x1="0" y1="0" x2="1" y2="1">
      <stop offset="0%" stop-color="#e2e4cf"/>
      <stop offset="45%" stop-color="#d7a55a"/>
      <stop offset="100%" stop-color="#7b4a2a"/>
    </linearGradient>
  </defs>
  <rect width="900" height="1200" fill="url(#bg)"/>
  <path d="M0 870 C210 760 470 760 900 940 L900 1200 L0 1200 Z" fill="#433027" opacity="0.9"/>
  <circle cx="692" cy="204" r="108" fill="#fff0c9" opacity="0.92"/>
  <rect x="84" y="88" width="732" height="1024" rx="32" fill="#f8eedf" opacity="0.94"/>
  <text x="126" y="186" fill="#6e4c34" font-size="28" font-family="Arial, sans-serif" letter-spacing="8">PANI BOTTLE</text>
  <text x="126" y="306" fill="#251c19" font-size="82" font-weight="700" font-family="Arial, sans-serif">Travel</text>
  <text x="126" y="392" fill="#251c19" font-size="82" font-weight="700" font-family="Arial, sans-serif">Memory Book</text>
  <text x="126" y="470" fill="#8d674c" font-size="30" font-family="Arial, sans-serif">Private-assignment demo inspired by public travel-channel energy.</text>
  <rect x="126" y="580" width="648" height="208" rx="26" fill="#ecd3ae"/>
  <circle cx="262" cy="682" r="88" fill="#7d4c2a"/>
  <path d="M262 596 L320 738 L210 738 Z" fill="#f8eedf"/>
  <rect x="394" y="620" width="254" height="24" rx="12" fill="#7d4c2a"/>
  <rect x="394" y="668" width="316" height="18" rx="9" fill="#aa6f43"/>
  <rect x="394" y="706" width="278" height="18" rx="9" fill="#aa6f43" opacity="0.75"/>
  <text x="126" y="920" fill="#f8eedf" font-size="56" font-weight="700" font-family="Arial, sans-serif">Road notes,</text>
  <text x="126" y="984" fill="#f8eedf" font-size="56" font-weight="700" font-family="Arial, sans-serif">border crossings,</text>
  <text x="126" y="1048" fill="#f8eedf" font-size="56" font-weight="700" font-family="Arial, sans-serif">your own page.</text>
</svg>
